<svg xmlns="http://www.w3.org/2000/svg" viewBox="0 0 85.5 112.44"><defs><style>.cls-1{fill:#e84437;}.cls-2{fill:#fcecbb;}.cls-3{fill:#feca3a;}.cls-4{fill:#aa6161;}</style></defs><title>sAsset 9logo</title><g id="Layer_2" data-name="Layer 2"><g id="Layer_1-2" data-name="Layer 1"><circle class="cls-1" cx="22.05" cy="103.18" r="7.14"/><path class="cls-2" d="M76.19,1.61a7.72,7.72,0,0,1,6,2.8A7.55,7.55,0,0,1,82.87,13L28.55,107.05a7.56,7.56,0,0,1-13.1-7.57L59.18,23.75a4.67,4.67,0,0,0-4-7H9.32A7.68,7.68,0,0,1,1.61,9,7.57,7.57,0,0,1,9.17,1.61h67m0-1.61h-67A9.19,9.19,0,0,0,0,9a9,9,0,0,0,2.62,6.53,9.47,9.47,0,0,0,6.7,2.82H55.13a3.06,3.06,0,0,1,2.65,4.59L14.05,98.68A9.18,9.18,0,0,0,30,107.85L84.27,13.76A9.16,9.16,0,0,0,83.45,3.4,9.25,9.25,0,0,0,76.19,0Z"/><circle class="cls-3" cx="9.43" cy="9.17" r="7.14"/><path class="cls-4" d="M80.44,15a3.26,3.26,0,0,1-1,.46L62.71,20.2a2.93,2.93,0,0,1-1.15.05,2.77,2.77,0,0,1-2.27-2.37A2.73,2.73,0,0,1,60,15.65h0L72.43,3.35a3.15,3.15,0,0,1,.9-.64A7.14,7.14,0,0,1,80.44,15Z"/></g></g></svg>