<?xml version="1.0" standalone="no"?><svg xmlns="http://www.w3.org/2000/svg" viewBox="0 0 1440 320"><path fill="#AA6161" fill-opacity="1" d="M0,128L26.7,112C53.3,96,107,64,160,69.3C213.3,75,267,117,320,144C373.3,171,427,181,480,165.3C533.3,149,587,107,640,122.7C693.3,139,747,213,800,202.7C853.3,192,907,96,960,64C1013.3,32,1067,64,1120,69.3C1173.3,75,1227,53,1280,53.3C1333.3,53,1387,75,1413,85.3L1440,96L1440,0L1413.3,0C1386.7,0,1333,0,1280,0C1226.7,0,1173,0,1120,0C1066.7,0,1013,0,960,0C906.7,0,853,0,800,0C746.7,0,693,0,640,0C586.7,0,533,0,480,0C426.7,0,373,0,320,0C266.7,0,213,0,160,0C106.7,0,53,0,27,0L0,0Z"></path></svg>